<svg xmlns="http://www.w3.org/2000/svg" width="16pt" height="16pt" viewBox="0 0 16 16"><path style="fill-rule:nonzero;fill:#224229;fill-opacity:1;stroke-width:2;stroke-linecap:butt;stroke-linejoin:miter;stroke:#224229;stroke-opacity:1;stroke-miterlimit:4" d="M19.002 12a7.002 7.002 0 1 1-14.004 0 7.002 7.002 0 0 1 14.004 0Zm0 0" transform="scale(.66667)"></path><path style="stroke:none;fill-rule:nonzero;fill:#224229;fill-opacity:1" d="M7.332 0h1.336v1.332H7.332Zm0 14.668h1.336V16H7.332ZM0 7.332h1.332v1.336H0Zm2.277-6 .942.945-.942.942-.945-.942Zm-.945 12.277.945-.941.942.941-.942.942ZM16 8.668h-1.332V7.332H16Zm-2.39 5.883-.942-.942.941-.941.942.941Zm.94-12.274-.94.942-.942-.942.941-.945Zm0 0"></path></svg>