<svg xmlns="http://www.w3.org/2000/svg" width="20" height="20"><path style="fill:none;stroke-width:2;stroke-linecap:butt;stroke-linejoin:miter;stroke:#224229;stroke-opacity:1;stroke-miterlimit:4" d="M14.002 12.802v.576l.496.29A4.992 4.992 0 0 1 17.002 18 5.005 5.005 0 0 1 12 23.002 5.003 5.003 0 0 1 6.998 18a4.992 4.992 0 0 1 2.504-4.331l.496-.29V.998h4.004Zm0 0" transform="scale(.83333)"></path><path style="stroke:none;fill-rule:nonzero;fill:#224229;fill-opacity:1" d="M14.168 15A4.17 4.17 0 0 1 10 19.168 4.17 4.17 0 0 1 5.832 15 4.17 4.17 0 0 1 10 10.832 4.17 4.17 0 0 1 14.168 15Zm0 0"></path><path style="stroke:none;fill-rule:nonzero;fill:#224229;fill-opacity:1" d="M9.168 7.5h1.664v4.168H9.168Zm0 0"></path></svg>